<?xml version="1.0" standalone="no"?> <!DOCTYPE svg PUBLIC "-//W3C//DTD SVG 1.0//EN" "http://www.w3.org/TR/2001/REC-SVG-20010904/DTD/svg10.dtd" > <svg xmlns="http://www.w3.org/2000/svg" width="100%" height="100%">
<defs >
<font id="monaco" horiz-adv-x="1229" ><font-face
    font-family="Monaco"
    units-per-em="2048"
    panose-1="2 11 5 9 3 4 4 4 2 4"
    ascent="2048"
    descent="-512"
    alphabetic="0" />
<missing-glyph d="M877 0H147V1552H877V0ZM727 1402H297V150H727V1402Z" />
<glyph unicode=" " glyph-name="space" />
<glyph unicode="!" glyph-name="exclam" d="M529 442L483 1552H731L684 442H529ZM615 -47Q556 -47 514 -5T471 97Q471 156 513 198T615 240Q673 240 715 199T758 97Q758 37 715 -5T615 -47Z" />
<glyph unicode="&quot;" glyph-name="quotedbl" d="M465 1055H337L273 1614H522L465 1055ZM896 1055H769L712 1614H956L896 1055Z" />
<glyph unicode="#" glyph-name="numbersign" d="M71 419V559H267L377 970H71V1109H412L529 1552H675L558 1109H841L963 1552H1109L989 1109H1157V970H950L841 559H1157V419H802L688 0H540L656 419H377L267 0H119L230 419H71ZM414 559H694L807 970H521L414 559Z" />
<glyph unicode="$" glyph-name="dollar" d="M580 -155V2Q513 2 441 9T306 30T161 82V274Q227 240 290 216T424 178T580 158V715L473 773Q169 936 169 1167Q169 1290 270 1406T580 1541V1707H720V1541Q838 1541 999 1500V1327L964 1337Q813 1379 720 1388V844L832
780Q990 689 1048 601T1107 414Q1107 325 1063 242T935 98T720 15V-155H580ZM580 928V1390Q479 1367 425 1314T370 1190Q370 1123 416 1062T580 928ZM720 632V172Q829 211 867 267T906 394Q906 462 868 510T720 632Z" />
<glyph unicode="%" glyph-name="percent" d="M314 1552Q459 1552 541 1444T624 1164Q624 991 542 884T314 776Q169 776 86 883T3 1164Q3 1336 86 1444T314 1552ZM314 1427Q233 1427 196 1350T159 1164Q159 1055 196 978T314 900Q394 900 431 977T469 1164Q469
1272 432 1349T314 1427ZM166 -47H2L1063 1598H1228L166 -47ZM912 776Q1051 776 1138 672T1225 404Q1225 215 1133 108T910 0Q782 0 693 102T604 388Q604 562 688 669T912 776ZM915 652Q836 652 798 576T760 382Q760 251 806 188T914 124Q980 124 1025 193T1070
392Q1070 494 1033 573T915 652Z" />
<glyph unicode="&amp;" glyph-name="ampersand" d="M881 130Q782 26 686 -10T477 -47Q263 -47 133 74T2 383Q2 646 276 874Q194 977 153 1066T111 1233Q111 1326 160 1414T295 1550T485 1598Q623 1598 716 1524T809 1312Q809 1211 753 1110T518 874L872 438Q887
488 891 520T899 637T902 742V791H1088V744Q1088 678 1074 555T990 292L1228 0H990L881 130ZM421 992Q522 1063 581 1147T640 1300Q640 1365 599 1411T469 1458Q393 1458 345 1402T297 1265Q297 1220 309 1174T399 1022Q406 1012 421 992ZM778 254L373 752Q183
588 183 398Q183 268 270 188T481 108Q547 108 614 131T778 254Z" />
<glyph unicode="&apos;" glyph-name="quotesingle" d="M683 993H549L444 1614H785L683 993Z" />
<glyph unicode="(" glyph-name="parenleft" d="M1072 -372Q795 -355 605 -216T302 161T188 636Q188 874 301 1111T605 1487T1072 1645V1489Q863 1470 713 1349T476 1039T390 636Q390 421 476 233T712 -76T1072 -217V-372Z" />
<glyph unicode=")" glyph-name="parenright" d="M157 1645Q434 1627 624 1488T927 1111T1041 636Q1041 398 928 161T624 -215T157 -372V-217Q366 -197 516 -76T753 233T840 636Q840 851 754 1039T517 1348T157 1489V1645Z" />
<glyph unicode="*" glyph-name="asterisk" d="M519 659L540 1006L257 816L164 978L471 1128L164 1280L257 1439L540 1250L519 1598H707L681 1250L970 1439L1064 1280L756 1128L1064 978L970 816L681 1006L707 659H519Z" />
<glyph unicode="+" glyph-name="plus" d="M1157 621V465H692V0H536V465H71V621H536V1086H692V621H1157Z" />
<glyph unicode="," glyph-name="comma" d="M424 -434V-310Q496 -291 533 -256T593 -166T616 -34Q523 -34 479 18T435 131Q435 200 484 247T598 295Q682 295 743 223T804 24Q804 -86 756 -183T626 -350T424 -434Z" />
<glyph unicode="-" glyph-name="hyphen" d="M227 551V706H1003V551H227Z" />
<glyph unicode="." glyph-name="period" d="M614 -47Q547 -47 499 1T451 116Q451 184 499 231T614 279Q680 279 728 232T777 116Q777 49 729 1T614 -47Z" />
<glyph unicode="/" glyph-name="slash" d="M216 -47H33L1020 1598H1197L216 -47Z" />
<glyph unicode="0" glyph-name="zero" d="M614 1598Q879 1598 1018 1376T1157 776Q1157 398 1018 176T614 -47Q350 -47 211 175T71 776Q71 1153 210 1375T614 1598ZM311 444L848 1285Q797 1378 738 1410T614 1443Q447 1443 360 1258T273 787Q273 722 277 647T311
444ZM915 1100L382 254Q425 181 481 145T606 108Q796 108 876 320T956 792Q956 952 915 1100Z" />
<glyph unicode="1" glyph-name="one" d="M568 155V1353Q484 1286 405 1239T188 1143V1311Q407 1404 568 1552H754V155H1127V0H188V155H568Z" />
<glyph unicode="2" glyph-name="two" d="M1088 0H149V171Q149 237 176 312T279 482T440 663L546 771Q578 804 686 924T828 1108T863 1234Q863 1334 783 1388T603 1443Q546 1443 476 1430T352 1400T180 1328V1493Q306 1553 432 1575T641 1598Q762 1598 863 1559T1014
1436T1064 1259Q1064 1154 1001 1044T761 761L647 648L551 554Q460 462 404 376T342 171H1088V0Z" />
<glyph unicode="3" glyph-name="three" d="M145 28V224Q374 108 542 108Q696 108 796 201T897 442Q897 590 787 683T411 776H308V931H451Q646 931 733 1018T820 1213Q820 1310 749 1376T531 1443Q366 1443 176 1350V1527Q366 1598 524 1598Q807 1598 914 1487T1022
1232Q1022 1126 965 1033T755 867Q890 827 959 769T1063 632T1099 455Q1099 237 938 95T520 -47Q446 -47 359 -36T145 28Z" />
<glyph unicode="4" glyph-name="four" d="M707 0V434H48V590L707 1552H894V590H1181V434H894V0H707ZM707 590V1270L246 590H707Z" />
<glyph unicode="5" glyph-name="five" d="M188 807V1552H1057V1373H374V993H406Q741 993 922 853T1103 476Q1103 326 1030 207T824 21T541 -47Q391 -47 157 26V229Q242 183 347 154T541 124Q630 124 715 167T847 292T894 461Q894 606 766 706T309 807H188Z" />
<glyph unicode="6" glyph-name="six" d="M292 728Q364 835 470 902T705 970Q826 970 934 911T1100 747T1157 501Q1157 280 1016 117T643 -47Q371 -47 237 180T102 759Q102 1147 273 1372T736 1598Q893 1598 1041 1552V1364Q875 1443 728 1443Q520 1443 406 1252T292
768V728ZM657 108Q732 108 808 152T927 289T971 491Q971 633 898 724T688 815Q547 815 457 710T366 453Q366 301 454 205T657 108Z" />
<glyph unicode="7" glyph-name="seven" d="M319 0V139Q319 302 356 413T486 660T635 870L797 1084L855 1159Q921 1248 969 1365H164V1552H1149V1428Q1149 1354 1120 1291T941 1022Q905 973 870 924L766 778Q666 637 618 553T546 378T521 139V0H319Z" />
<glyph unicode="8" glyph-name="eight" d="M459 837L425 862Q354 912 286 1009T218 1224Q218 1379 340 1488T650 1598Q765 1598 857 1557T999 1434T1049 1257Q1049 1191 1026 1130T958 1008T777 837L861 770Q1008 650 1059 563T1110 368Q1110 200 988 77T622 -47Q377
-47 255 68T133 355Q133 610 459 837ZM650 932Q791 1039 826 1111T862 1245Q862 1320 796 1381T626 1443Q514 1443 456 1376T397 1237Q397 1167 446 1105T603 966L650 932ZM599 738Q335 535 335 358Q335 253 422 181T628 109Q737 109 823 178T909 350Q909 451 805
555T659 691L599 738Z" />
<glyph unicode="9" glyph-name="nine" d="M936 824Q864 717 758 650T523 582Q402 582 294 640T128 805T71 1051Q71 1271 212 1434T585 1598Q857 1598 991 1371T1126 792Q1126 404 955 179T492 -47Q335 -47 187 0V187Q353 109 500 109Q708 109 822 300T936 784V824ZM571
1443Q496 1443 420 1399T301 1262T257 1060Q257 919 330 828T540 737Q681 737 771 842T862 1098Q862 1250 774 1346T571 1443Z" />
<glyph unicode=":" glyph-name="colon" d="M614 -47Q547 -47 499 1T451 116Q451 184 499 231T614 279Q680 279 728 232T777 116Q777 49 729 1T614 -47ZM614 822Q547 822 499 870T451 985Q451 1053 499 1100T614 1148Q680 1148 728 1101T777 985Q777 918 729 870T614 822Z" />
<glyph unicode=";" glyph-name="semicolon" d="M424 -434V-310Q496 -291 533 -256T593 -166T616 -34Q523 -34 479 18T435 131Q435 200 484 247T598 295Q682 295 743 223T804 24Q804 -86 756 -183T626 -350T424 -434ZM598 822Q531 822 483 870T435 985Q435 1053
483 1100T598 1148Q664 1148 712 1101T761 985Q761 918 713 870T598 822Z" />
<glyph unicode="&lt;" glyph-name="less" d="M71 543L1157 1086V913L415 544L1157 171V0L71 543Z" />
<glyph unicode="=" glyph-name="equal" d="M1157 791V636H71V791H1157ZM1157 442V287H71V442H1157Z" />
<glyph unicode="&gt;" glyph-name="greater" d="M1157 543L71 0V173L814 542L71 915V1086L1157 543Z" />
<glyph unicode="?" glyph-name="question" d="M401 442V477Q401 560 415 615T468 730T587 874L649 940Q667 959 701 1002L767 1085Q851 1189 851 1265Q851 1335 791 1389T596 1443Q509 1443 419 1420T207 1328V1508Q392 1598 594 1598Q818 1598 935 1507T1053
1269Q1053 1125 901 970L835 902L757 821L686 748Q647 704 617 647T587 488V442H401ZM503 -47Q445 -47 403 -5T360 97Q360 156 402 198T503 240Q562 240 604 199T647 97Q647 37 604 -5T503 -47Z" />
<glyph unicode="@" glyph-name="at" d="M921 200V43Q837 -12 772 -29T632 -47Q424 -47 292 54T81 337T2 781Q2 1145 169 1371T620 1598Q901 1598 1064 1398T1228 872Q1228 728 1186 636T1075 489T908 434Q832 434 784 467T712 622Q684 557 626 496T469 434Q366
434 299 527T231 757Q231 924 327 1067T676 1210H867V772Q867 685 873 649T900 593T945 574Q984 574 1023 611T1083 717T1104 866Q1104 1033 1043 1190T862 1415T611 1482Q472 1482 367 1399T194 1148T126 779Q126 576 193 403T374 150T628 70Q787 70 921 200ZM712
809V1078H676Q558 1078 506 1041T424 925T394 751Q394 674 418 632T484 590Q543 590 604 658T712 809Z" />
<glyph unicode="A" glyph-name="A" d="M227 0H33L511 1552H716L1197 0H984L878 341H332L227 0ZM380 496H833L646 1085L602 1241L563 1085L380 496Z" />
<glyph unicode="B" glyph-name="B" d="M172 0V1552H475Q748 1552 840 1511T979 1388T1025 1203Q1025 1121 998 1048T918 914T764 799Q949 725 1014 617T1080 401Q1080 298 1025 201T869 52T549 0H172ZM374 853H586Q689 896 736 943T807 1049T831 1178Q831 1288
767 1342T515 1396H374V853ZM374 155H565Q725 155 801 230T878 412Q878 490 836 555T706 659T430 698H374V155Z" />
<glyph unicode="C" glyph-name="C" d="M1088 18Q914 -47 776 -47Q594 -47 441 50T203 340T118 776Q118 1017 202 1209T439 1500T776 1599Q914 1599 1088 1534V1350Q927 1443 768 1443Q648 1443 549 1361T388 1121T327 776Q327 587 390 427T551 188T768 108Q926
108 1088 201V18Z" />
<glyph unicode="D" glyph-name="D" d="M155 0V1552H523Q777 1552 900 1464T1086 1196T1148 772Q1148 540 1083 365T897 95T523 0H155ZM357 171H492Q697 171 784 244T909 446T947 804Q947 1027 903 1147T777 1331T508 1396H357V171Z" />
<glyph unicode="E" glyph-name="E" d="M1041 171V0H203V1552H1025V1396H405V869H963V714H405V171H1041Z" />
<glyph unicode="F" glyph-name="F" d="M227 0V1552H1080V1396H429V869H1018V714H429V0H227Z" />
<glyph unicode="G" glyph-name="G" d="M1088 1Q924 -47 787 -47Q593 -47 442 49T204 338T118 776Q118 1017 202 1209T439 1500T775 1599Q913 1599 1087 1534V1350Q926 1443 767 1443Q647 1443 548 1361T388 1121T327 774Q327 522 442 315T805 108Q837 108 886
113V613H731V768H1088V1Z" />
<glyph unicode="H" glyph-name="H" d="M126 0V1552H328V884H902V1552H1103V0H902V729H328V0H126Z" />
<glyph unicode="I" glyph-name="I" d="M172 0V155H513V1396H172V1552H1056V1396H715V155H1056V0H172Z" />
<glyph unicode="J" glyph-name="J" d="M110 34V224Q328 109 475 109Q552 109 615 139T716 239T754 541V1396H405V1552H956V536Q956 288 900 179T741 12T480 -47Q302 -47 110 34Z" />
<glyph unicode="K" glyph-name="K" d="M157 0V1552H359V791L936 1552H1150L593 815L1228 0H975L359 791V0H157Z" />
<glyph unicode="L" glyph-name="L" d="M1057 171V0H219V1552H421V171H1057Z" />
<glyph unicode="M" glyph-name="M" d="M219 0H56V1552H259L617 530L975 1552H1173V0H987V989L992 1125H987L943 989L703 310H501L258 989L219 1125H214L219 989V0Z" />
<glyph unicode="N" glyph-name="N" d="M312 0H126V1552H308L857 519L917 365H922L917 519V1552H1103V0H917L383 1016L308 1179L312 1018V0Z" />
<glyph unicode="O" glyph-name="O" d="M614 -47Q350 -47 211 175T71 776Q71 1153 210 1375T614 1598Q879 1598 1018 1376T1157 776Q1157 398 1018 176T614 -47ZM614 109Q760 109 857 274T955 776Q955 1112 858 1277T614 1443Q468 1443 371 1278T273 776Q273 440
370 275T614 109Z" />
<glyph unicode="P" glyph-name="P" d="M378 566V0H176V1552H562Q800 1552 909 1499T1076 1342T1134 1112Q1134 963 1056 834T839 636T460 566H378ZM378 721H465Q652 721 743 769T883 909T932 1106Q932 1240 845 1318T499 1396H378V721Z" />
<glyph unicode="Q" glyph-name="Q" d="M746 -29Q816 -145 871 -190T1014 -257T1209 -279H1227V-434H1180Q987 -434 899 -394T733 -271T591 -45Q408 -25 302 71T133 368T71 800Q71 1138 206 1368T614 1598Q878 1598 1017 1376T1157 775Q1157 595 1121 431T995 142T746
-29ZM614 1443Q468 1443 371 1278T273 776Q273 440 370 275T614 109Q760 109 857 274T955 776Q955 1112 858 1277T614 1443Z" />
<glyph unicode="R" glyph-name="R" d="M351 659V0H149V1552H564Q767 1552 863 1511T1011 1385T1064 1204Q1064 1114 1029 1023T933 861T755 725L1204 0H964L553 659H351ZM351 815H634Q729 867 775 921T846 1036T870 1158Q870 1267 791 1331T502 1396H351V815Z" />
<glyph unicode="S" glyph-name="S" d="M157 33V223Q397 109 593 109Q675 109 750 140T863 231T902 359Q902 440 849 510T650 666L548 725L445 784Q173 945 173 1184Q173 1359 294 1478T674 1598Q840 1598 995 1550V1377Q824 1443 662 1443Q533 1443 454 1375T374
1211Q374 1116 435 1053T591 937L669 890L766 831L848 783Q1103 627 1103 391Q1103 211 972 82T552 -47Q460 -47 377 -32T157 33Z" />
<glyph unicode="T" glyph-name="T" d="M513 0V1381H48V1552H1181V1381H715V0H513Z" />
<glyph unicode="U" glyph-name="U" d="M126 1552H328V533Q328 332 361 259T464 147T619 108Q709 108 779 149T883 279T917 612V1552H1103V539Q1103 322 1039 200T870 15T608 -47Q462 -47 351 7T183 169T126 559V1552Z" />
<glyph unicode="V" glyph-name="V" d="M1003 1552H1197L719 0H514L33 1552H246L583 468L627 310L666 467L1003 1552Z" />
<glyph unicode="W" glyph-name="W" d="M208 0L28 1552H212L318 607L332 450H337L357 607L520 1552H704L890 569L909 419H914L926 570L1043 1552H1201L1013 0H822L622 1052L601 1210H596L577 1052L397 0H208Z" />
<glyph unicode="X" glyph-name="X" d="M258 0H48L502 811L92 1552H321L618 1017L922 1552H1133L723 826L1181 0H948L607 619L258 0Z" />
<glyph unicode="Y" glyph-name="Y" d="M514 0V718L52 1552H281L626 936L970 1552H1177L716 718V0H514Z" />
<glyph unicode="Z" glyph-name="Z" d="M122 0V171L859 1396H145V1552H1092V1396L356 171H1107V0H122Z" />
<glyph unicode="[" glyph-name="bracketleft" d="M355 -372V1645H1162V1489H541V-217H1162V-372H355Z" />
<glyph unicode="\" glyph-name="backslash" d="M1014 -47L33 1598H210L1197 -47H1014Z" />
<glyph unicode="]" glyph-name="bracketright" d="M874 1645V-372H67V-217H688V1489H67V1645H874Z" />
<glyph unicode="^" glyph-name="asciicircum" d="M614 1552L1157 465H986L614 1212L242 465H71L614 1552Z" />
<glyph unicode="_" glyph-name="underscore" d="M71 -155V0H1157V-155H71Z" />
<glyph unicode="`" glyph-name="grave" d="M832 1288H662L320 1614H536L832 1288Z" />
<glyph unicode="a" glyph-name="a" d="M889 251Q804 111 685 40T465 -31Q325 -31 214 90T102 457Q102 651 176 803T374 1044T681 1133Q734 1133 841 1122Q857 1120 889 1117H1076V328Q1076 126 1118 0H924Q902 92 889 251ZM889 472V951Q790 977 705 977Q533 977
419 844T304 482Q304 316 366 232T509 147Q596 147 701 235T889 472Z" />
<glyph unicode="b" glyph-name="b" d="M327 866Q413 1006 532 1077T751 1148Q891 1148 1003 1027T1115 660Q1115 466 1041 314T842 73T535 -16Q483 -16 375 -5Q359 -3 327 0H141V1614H327V866ZM327 645V166Q428 140 513 140Q682 140 797 272T913 635Q913 802 850
886T707 970Q620 970 516 882T327 645Z" />
<glyph unicode="c" glyph-name="c" d="M1095 32Q908 -31 739 -31Q571 -31 441 46T237 256T164 558Q164 812 329 980T729 1148Q902 1148 1095 1083V904Q900 993 746 993Q644 993 554 943T415 785T366 565Q366 414 460 277T757 140Q818 140 877 148T1095 211V32Z" />
<glyph unicode="d" glyph-name="d" d="M901 251Q816 111 697 40T477 -31Q337 -31 226 90T114 457Q114 651 188 803T386 1044T693 1133Q746 1133 853 1122Q869 1120 901 1117V1614H1088V0H901V251ZM901 472V951Q802 977 717 977Q545 977 431 844T316 482Q316 316
378 232T521 147Q608 147 713 235T901 472Z" />
<glyph unicode="e" glyph-name="e" d="M1084 74Q861 -32 662 -32Q511 -32 392 43T202 257T130 556Q130 709 198 850T388 1069T660 1148Q859 1148 979 1006T1100 568V528H330Q330 412 378 316T506 172T686 124Q866 124 1084 244V74ZM341 667H898V694Q898 831 831
912T652 993Q539 993 457 911T341 667Z" />
<glyph unicode="f" glyph-name="f" d="M415 0V869H167V1024H415V1076Q415 1297 465 1403T619 1577T896 1645Q1026 1645 1160 1618V1441Q1015 1489 903 1489Q814 1489 746 1456T640 1349T601 1096V1024H1044V869H601V0H415Z" />
<glyph unicode="g" glyph-name="g" d="M901 251Q816 111 697 40T477 -31Q337 -31 226 90T114 457Q114 651 188 803T386 1044T693 1133Q746 1133 853 1122Q869 1120 901 1117H1088V327Q1088 45 1081 -17T1056 -144Q1016 -293 874 -379T529 -465Q326 -465 118 -361V-173Q197
-227 312 -268T536 -310Q621 -310 697 -283T820 -205Q867 -154 884 -87T901 93V251ZM901 472V951Q802 977 717 977Q545 977 431 844T316 482Q316 316 378 232T521 147Q608 147 713 235T901 472Z" />
<glyph unicode="h" glyph-name="h" d="M155 0V1614H341V873Q421 1002 534 1075T760 1148Q855 1148 933 1100T1043 982Q1068 929 1077 870T1086 624V0H900V647Q900 808 885 859T828 944T737 977Q639 977 527 884T341 651V0H155Z" />
<glyph unicode="i" glyph-name="i" d="M468 0V962H158V1117H654V155H965V0H468ZM437 1520Q437 1583 480 1614T561 1645Q600 1645 643 1614T686 1520Q686 1458 643 1427T561 1396Q523 1396 480 1427T437 1520Z" />
<glyph unicode="j" glyph-name="j" d="M172 -438V-264Q328 -310 435 -310Q528 -310 593 -278T694 -168T731 100V962H257V1117H917V135Q917 -149 850 -259T688 -418T428 -466Q309 -466 172 -438ZM700 1520Q700 1583 742 1614T824 1645Q863 1645 905 1614T948 1520Q948
1458 906 1427T824 1396Q785 1396 743 1427T700 1520Z" />
<glyph unicode="k" glyph-name="k" d="M205 0V1614H391V600L928 1117H1176L640 600L1190 0H934L391 600V0H205Z" />
<glyph unicode="l" glyph-name="l" d="M455 0V1458H121V1614H641V155H990V0H455Z" />
<glyph unicode="m" glyph-name="m" d="M71 0V1117H234V861Q311 1024 377 1086T512 1148Q593 1148 642 1085T692 904V844Q725 946 771 1009T868 1110T983 1148Q1055 1148 1106 1087T1157 844V0H994V763Q994 857 988 891T964 944T925 962Q873 962 814 883T692 619V0H536V762Q536
910 507 936T455 962Q404 962 346 873T234 645V0H71Z" />
<glyph unicode="n" glyph-name="n" d="M155 0V1117H341V873Q421 1002 534 1075T760 1148Q859 1148 940 1096T1053 958T1086 624V0H900V647Q900 808 885 859T828 944T737 977Q639 977 527 884T341 651V0H155Z" />
<glyph unicode="o" glyph-name="o" d="M615 -31Q375 -31 231 136T87 559Q87 814 231 981T615 1148Q854 1148 998 981T1142 559Q1142 304 998 137T615 -31ZM615 124Q764 124 852 240T940 559Q940 761 852 877T615 993Q465 993 377 877T289 559Q289 356 377 240T615 124Z" />
<glyph unicode="p" glyph-name="p" d="M327 866Q413 1006 532 1077T751 1148Q891 1148 1003 1027T1115 660Q1115 466 1041 314T842 73T535 -16Q483 -16 375 -5Q359 -3 327 0V-434H141V1117H327V866ZM327 645V166Q428 140 513 140Q682 140 797 272T913 635Q913
802 850 886T707 970Q620 970 516 882T327 645Z" />
<glyph unicode="q" glyph-name="q" d="M901 251Q816 111 697 40T477 -31Q337 -31 226 90T114 457Q114 651 188 803T386 1044T693 1133Q746 1133 853 1122Q869 1120 901 1117H1088V-434H901V251ZM901 472V951Q802 977 717 977Q545 977 431 844T316 482Q316 316
378 232T521 147Q608 147 713 235T901 472Z" />
<glyph unicode="r" glyph-name="r" d="M250 0V1117H436V873Q523 1011 635 1079T886 1148Q987 1148 1088 1117V714H909V969Q862 977 835 977Q731 977 631 895T436 649V0H250Z" />
<glyph unicode="s" glyph-name="s" d="M168 59V256Q280 183 405 154T617 124Q758 124 820 169T882 283Q882 328 853 360Q824 392 709 439L645 465L516 516Q308 597 254 666Q199 734 199 832Q199 970 305 1059T651 1148Q830 1148 990 1096V927Q806 993 644 993Q526
993 460 952T393 848Q393 788 451 752Q508 716 637 669L763 623Q936 560 1006 486Q1076 412 1076 301Q1076 156 965 63T608 -31Q394 -31 168 59Z" />
<glyph unicode="t" glyph-name="t" d="M1089 45Q958 -10 899 -20T785 -31Q668 -31 571 14T425 147T375 419V869H96V1024H375V1474H561V1024H1058V869H561V422Q561 287 593 232T678 150T805 124Q940 124 1089 209V45Z" />
<glyph unicode="u" glyph-name="u" d="M1074 1117V0H888V245Q798 107 688 38T468 -31Q370 -31 289 21T175 159T143 493V1117H329V470Q329 309 344 258T401 173T491 140Q589 140 701 232T888 466V1117H1074Z" />
<glyph unicode="v" glyph-name="v" d="M518 0L33 1117H237L620 233L1011 1117H1197L708 0H518Z" />
<glyph unicode="w" glyph-name="w" d="M202 0L20 1117H193L299 437L327 279L354 437L532 1117H699L900 437L935 279L958 437L1065 1117H1208L1027 0H853L639 719L605 877H600L569 720L383 0H202Z" />
<glyph unicode="x" glyph-name="x" d="M271 0H56L495 585L85 1117H323L614 742L897 1117H1108L720 603L1181 0H942L602 445L271 0Z" />
<glyph unicode="y" glyph-name="y" d="M566 45L50 1117H255L666 279L1010 1117H1197L764 79Q627 -250 504 -358T184 -466Q99 -466 32 -451V-287Q109 -311 179 -311Q269 -311 339 -276T467 -152T549 2L566 45Z" />
<glyph unicode="z" glyph-name="z" d="M133 0V171L818 962H149V1117H1064V962L374 171H1087V0H133Z" />
<glyph unicode="{" glyph-name="braceleft" d="M547 636Q640 587 683 540T748 444T770 330Q770 273 750 181L725 67Q705 -26 705 -71Q705 -132 752 -174T948 -217H1103V-372H946Q672 -372 593 -284T514 -85Q514 -26 529 42L547 122L564 209L576 262Q583 299 583
334Q583 427 521 493T300 559H211V714H300Q456 714 519 779T583 941Q583 977 576 1011L564 1063L547 1150L529 1230Q514 1299 514 1358Q514 1468 593 1556T946 1645H1103V1489H948Q801 1489 753 1447T705 1342Q705 1298 725 1205L750 1091Q770 999 770 942Q770
878 749 829T684 732T547 636Z" />
<glyph unicode="|" glyph-name="bar" d="M533 -47V1598H696V-47H533Z" />
<glyph unicode="}" glyph-name="braceright" d="M682 636Q589 685 546 732T481 828T460 942Q460 999 479 1091L504 1205Q524 1298 524 1343Q524 1404 477 1446T281 1489H126V1645H283Q557 1645 636 1557T716 1358Q716 1298 700 1230L682 1150L665 1063L653 1011Q646
973 646 938Q646 846 708 780T929 714H1018V559H929Q773 559 710 494T646 331Q646 296 653 262L665 209L682 122L700 42Q716 -27 716 -86Q716 -197 637 -284T283 -372H126V-217H281Q429 -217 476 -175T524 -70Q524 -26 504 67L479 181Q460 273 460 330Q460 394
481 443T545 540T682 636Z" />
<glyph unicode="~" glyph-name="asciitilde" d="M56 403V421Q56 552 133 648T342 745Q375 745 406 739T478 717T598 656L719 589Q830 528 900 528Q974 528 1009 581T1045 698V714H1173V698Q1173 531 1079 452T878 372Q779 372 616 465L514 524Q398 590 327 590Q287
590 253 569T197 502T176 421V403H56Z" />
</font>
</defs>
</svg>
